<?xml version="1.0" encoding="utf-8"?>
<!-- Generator: Adobe Illustrator 14.0.0, SVG Export Plug-In . SVG Version: 6.00 Build 43363)  -->
<!DOCTYPE svg PUBLIC "-//W3C//DTD SVG 1.1//EN" "http://www.w3.org/Graphics/SVG/1.1/DTD/svg11.dtd">
<svg version="1.1" id="Layer_1" xmlns="http://www.w3.org/2000/svg" xmlns:xlink="http://www.w3.org/1999/xlink" x="0px" y="0px"
	 width="93.687px" height="110.23px" viewBox="0 0 93.687 110.23" enable-background="new 0 0 93.687 110.23" xml:space="preserve">
<path d="M144.066,13.561c0-1.438,1.917-2.394,5.907-2.394c17.4,0,19.476,21.711,24.587,21.711c2.713,0,3.99-1.598,3.99-5.108V7.972
	c0-2.234-1.118-3.512-4.47-3.512c-9.579,0-22.669,0.638-28.737,0.638c-9.579,0-20.434-0.638-28.417-0.638
	c-3.99,0-7.344,0-7.344,2.236c0,6.066,9.899,0,9.899,11.174v73.119c0,5.747-1.598,7.982-5.749,8.622
	c-3.352,0.477-4.471,1.596-4.471,3.83c0,1.755,1.599,2.232,4.151,2.232c3.513,0,9.579-0.637,31.609-0.637
	c16.923,0,26.183,0.637,31.291,0.637c5.111,0,5.588-0.478,5.588-13.886c0-18.679-0.477-19.317-3.353-19.317
	c-9.578,0-3.032,26.501-26.662,26.501c-5.905,0-7.822-0.959-7.822-6.067V56.985c0-1.119,1.438-1.438,5.269-1.438
	c6.547,0,8.461,2.552,10.059,6.384c2.076,4.789,2.553,10.378,5.585,10.378c2.395,0,3.036-1.277,3.036-3.513
	c0-3.353-0.641-9.737-0.641-15.805c0-5.428,0.641-11.493,0.641-15.167c0-2.234-1.119-3.033-2.556-3.033
	c-3.193,0-3.193,4.151-4.949,8.142c-1.596,3.673-3.99,5.907-10.855,5.907c-4.95,0-5.588-0.477-5.588-1.756V13.561L144.066,13.561z"
	/>
<path d="M212.398,51.078c0-6.707,3.832-9.898,9.102-9.898c5.267,0,8.78,3.191,8.78,9.898v45.18c0,6.544-5.908,2.872-5.908,6.865
	c0,1.754,1.118,2.551,3.832,2.551c3.194,0,6.866-0.637,12.454-0.637c5.746,0,9.739,0.637,15.805,0.637
	c2.076,0,3.512-0.797,3.512-2.551c0-2.556-3.031-1.756-5.906-3.193c-2.076-0.958-3.033-6.227-3.033-9.579V53.312
	c0-14.526-7.025-22.989-19.159-22.989c-6.226,0-11.653,3.671-15.167,6.865c-2.552,2.236-3.352,3.513-4.47,3.513
	c-0.796,0-1.276-0.319-1.276-1.756v-6.546c0-1.596-0.478-2.075-1.119-2.075c-1.276,0-12.769,8.621-23.146,11.176
	c-1.279,0.319-2.713,1.116-2.713,2.714c0,3.512,7.66,0.639,7.66,7.342v44.703c0,5.906-7.183,2.872-7.183,6.865
	c0,1.754,1.118,2.551,3.832,2.551c2.076,0,7.822-0.637,13.411-0.637c4.47,0,9.739,0.637,13.41,0.637
	c2.076,0,3.672-0.318,3.672-2.074c0-4.47-6.386-0.158-6.386-8.779V51.078L212.398,51.078z"/>
<path d="M303.721,34.473c-0.959,0-7.664-4.15-15.008-4.15c-15.165,0-29.693,14.368-29.693,40.23
	c0,27.778,12.609,37.037,25.063,37.037c6.065,0,10.696-3.033,16.604-7.184c0.799-0.638,1.757-1.115,2.714-1.115
	c0.639,0,1.117,0.796,1.275,1.915l0.318,4.148c0.162,1.274,0.162,3.193,2.077,3.193c1.598,0,3.354-0.64,5.749-1.438
	c6.545-2.393,13.249-5.268,19.796-8.938c1.913-1.117,2.394-2.075,2.394-7.184c0-1.275-0.957-1.599-1.597-1.599
	c-2.714,0-2.874,4.951-5.268,4.951c-1.757,0-3.672-1.119-3.672-3.671V-3.521c0-2.236-0.318-3.194-1.118-3.194
	c-2.074,0-6.065,3.513-24.106,6.704c-3.671,0.639-4.95,1.118-4.95,3.033c0,3.992,9.422,0,9.422,7.825V34.473L303.721,34.473z
	 M303.721,84.444c0,9.579-2.077,11.972-7.505,11.972c-7.024,0-13.57-7.184-13.57-29.533c0-18.679,4.788-30.491,11.653-30.491
	s9.422,6.703,9.422,13.729V84.444L303.721,84.444z"/>
<path d="M338.526,86.359c0,12.134,6.706,21.231,18.519,21.231c9.58,0,19.158-10.535,20.754-10.535c0.958,0,0.958,1.117,0.958,8.938
	c0,2.235,0.641,3.032,2.236,3.032c2.075,0,11.973-6.063,21.232-8.776c1.598-0.479,2.713-0.957,2.713-2.714
	c0-3.993-7.023,0.318-7.023-7.026V34.792c0-1.756-1.117-2.233-3.672-2.233c-7.185,0-14.207-0.319-21.392-0.319
	c-2.075,0-3.832,0-3.832,1.753c0,4.151,8.142,0.322,8.142,9.101v45.34c0,4.312-4.47,7.981-9.421,7.981
	c-5.585,0-8.461-3.67-8.461-10.695V35.75c0-2.395-0.318-3.191-3.032-3.191c-6.864,0-13.569-0.319-20.435-0.319
	c-2.714,0-4.79,0-4.79,1.915c0,3.99,7.504,0,7.504,6.864V86.359L338.526,86.359z"/>
<path d="M450.761,31.6c-11.655,0-14.688,13.091-17.402,13.091c-0.477,0-1.118-0.478-1.118-1.596V32.398
	c0-1.437-0.319-2.075-1.436-2.075c-1.756,0-2.874,0.798-8.781,4.47c-15.166,9.579-18.36,7.822-18.36,11.016
	c0,5.27,9.9-2.075,9.9,10.697v35.921c0,10.218-9.9,6.066-9.9,10.536c0,1.756,1.118,2.711,3.035,2.711
	c2.715,0,5.429-0.637,16.283-0.637c13.252,0,16.603,0.637,20.274,0.637c2.396,0,3.193-0.955,3.193-2.551
	c0-1.916-1.756-2.396-3.512-2.556c-7.661-0.638-8.622-2.875-8.622-13.409V61.294c0-9.579,3.833-14.687,7.346-14.687
	c4.63,0-0.801,11.973,11.653,11.973c7.502,0,10.537-6.865,10.537-12.611C463.852,36.709,458.423,31.6,450.761,31.6L450.761,31.6z"/>
<path d="M524.466,46.127c0-11.812-7.983-15.805-21.552-15.805c-20.437,0-37.519,13.252-37.519,24.586
	c0,4.947,2.077,6.545,5.268,6.545c3.513,0,14.052-3.512,15.486-11.176c1.756-9.74,5.749-14.848,11.495-14.848
	c4.471,0,6.065,2.395,6.065,8.302v11.815c0,4.309-0.956,4.628-11.493,9.579c-19.636,9.259-27.458,15.965-27.458,26.34
	c0,9.42,6.705,16.124,16.123,16.124c4.948,0,9.579-2.235,14.369-6.384c5.587-4.791,6.384-6.067,8.301-6.067
	c1.596,0,1.596,2.714,3.193,5.588c2.396,4.31,5.109,6.863,11.175,6.863c12.291,0,18.36-9.737,18.36-14.845
	c0-1.118-0.8-1.917-1.756-1.917c-2.237,0-3.514,4.95-6.707,4.95c-1.914,0-3.352-2.557-3.352-7.026V46.127L524.466,46.127z
	 M486.79,84.444c0-8.782,7.981-14.209,14.526-18.36c0.639-0.32,1.118-0.639,1.599-0.639c0.478,0,0.796,0.48,0.796,1.276v12.934
	c0,9.417-3.832,14.528-8.779,14.528C489.503,94.183,486.79,90.35,486.79,84.444L486.79,84.444z"/>
<g>
	<path fill="#D39D60" d="M114.173,128.891h6.854l4.593,18.688h0.035l4.31-18.688h6.959v26.142h-5.087v-18.37h-0.071
		c-0.047,0.448-0.124,0.96-0.229,1.537c-0.106,0.578-0.224,1.16-0.354,1.749c-0.13,0.589-0.259,1.161-0.389,1.713
		c-0.129,0.554-0.253,1.031-0.371,1.431l-3.109,11.94h-3.992l-3.038-11.94c-0.071-0.306-0.171-0.73-0.3-1.272
		c-0.13-0.542-0.265-1.125-0.406-1.749s-0.271-1.254-0.389-1.89c-0.118-0.636-0.2-1.189-0.247-1.661h-0.071v18.512h-4.699V128.891z"
		/>
	<path fill="#D39D60" d="M144.449,155.245c-0.636,0-1.236-0.088-1.802-0.265c-0.565-0.176-1.054-0.464-1.466-0.865
		c-0.412-0.4-0.736-0.913-0.971-1.537c-0.236-0.624-0.354-1.372-0.354-2.244c0-1.036,0.235-1.955,0.707-2.755
		c0.471-0.8,1.148-1.501,2.032-2.102c0.883-0.601,1.948-1.118,3.197-1.554c1.248-0.436,2.649-0.795,4.204-1.078v-0.777
		c0-0.707-0.141-1.242-0.424-1.607c-0.283-0.365-0.777-0.547-1.484-0.547c-0.966,0-1.902,0.218-2.809,0.654
		c-0.907,0.436-1.702,0.9-2.385,1.395l-2.367-3.108c1.107-0.966,2.378-1.713,3.815-2.244c1.436-0.53,3.014-0.795,4.734-0.795
		c2.096,0,3.615,0.507,4.557,1.519c0.942,1.013,1.413,2.591,1.413,4.734v8.373c0,1.131,0.029,2.062,0.088,2.791
		c0.059,0.73,0.182,1.331,0.371,1.802h-5.158c-0.118-0.354-0.206-0.729-0.265-1.13c-0.059-0.4-0.088-0.871-0.088-1.413
		c-0.684,0.895-1.479,1.578-2.385,2.049C146.704,155.01,145.65,155.245,144.449,155.245z M146.675,151.253
		c0.729,0,1.372-0.159,1.925-0.477c0.553-0.318,1.019-0.654,1.396-1.007V145.6c-1.885,0.401-3.203,0.919-3.957,1.555
		c-0.754,0.636-1.131,1.378-1.131,2.226c0,0.613,0.159,1.078,0.477,1.396S146.133,151.253,146.675,151.253z"/>
	<path fill="#D39D60" d="M158.438,128.891h5.122v14.908c0.188-0.376,0.447-0.831,0.777-1.36c0.33-0.53,0.659-1.065,0.989-1.607
		l2.967-4.628h5.264l-4.946,6.995l5.334,11.834h-5.299l-3.321-7.631l-1.767,2.473v5.158h-5.122V128.891z"/>
	<path fill="#D39D60" d="M182.603,155.421c-1.13,0-2.196-0.183-3.197-0.548c-1.001-0.365-1.878-0.941-2.632-1.731
		c-0.754-0.789-1.349-1.802-1.784-3.038c-0.436-1.236-0.653-2.726-0.653-4.469c0-1.79,0.241-3.309,0.724-4.557
		c0.482-1.248,1.113-2.261,1.89-3.039c0.777-0.777,1.648-1.342,2.614-1.695c0.965-0.354,1.931-0.53,2.896-0.53
		c1.06,0,2.049,0.189,2.968,0.565c0.918,0.377,1.719,0.972,2.402,1.784c0.683,0.813,1.219,1.861,1.607,3.144
		c0.388,1.284,0.583,2.832,0.583,4.646v0.954h-10.563c0.094,1.625,0.436,2.803,1.024,3.533c0.588,0.73,1.377,1.095,2.367,1.095
		c0.895,0,1.696-0.252,2.402-0.759c0.707-0.506,1.26-1.065,1.66-1.678l3.039,2.438c-0.825,1.201-1.819,2.149-2.985,2.844
		C185.799,155.074,184.345,155.421,182.603,155.421z M185.287,143.94c-0.094-1.413-0.377-2.455-0.848-3.126
		c-0.471-0.671-1.13-1.007-1.979-1.007c-0.73,0-1.372,0.313-1.925,0.936c-0.554,0.625-0.901,1.69-1.042,3.197H185.287z"/>
	<path fill="#D39D60" d="M200.972,128.891h7.914c1.201,0,2.354,0.136,3.462,0.406c1.107,0.271,2.078,0.724,2.915,1.36
		c0.836,0.636,1.501,1.496,1.996,2.579c0.495,1.083,0.742,2.438,0.742,4.063c0,1.72-0.266,3.139-0.797,4.257
		c-0.532,1.119-1.234,2.002-2.108,2.65c-0.874,0.648-1.86,1.095-2.958,1.342c-1.099,0.247-2.214,0.371-3.348,0.371h-2.551v9.114
		h-5.264V128.891z M208.936,141.679c1.42,0,2.433-0.343,3.036-1.029c0.604-0.686,0.906-1.762,0.906-3.229
		c0-1.418-0.302-2.454-0.906-3.104c-0.604-0.65-1.627-0.976-3.072-0.976h-2.664v8.337H208.936z"/>
	<path fill="#D39D60" d="M227.22,155.421c-1.13,0-2.196-0.183-3.197-0.548c-1.001-0.365-1.878-0.941-2.632-1.731
		c-0.754-0.789-1.349-1.802-1.784-3.038c-0.436-1.236-0.653-2.726-0.653-4.469c0-1.79,0.241-3.309,0.724-4.557
		c0.482-1.248,1.113-2.261,1.89-3.039c0.777-0.777,1.648-1.342,2.614-1.695c0.965-0.354,1.931-0.53,2.896-0.53
		c1.06,0,2.049,0.189,2.968,0.565c0.918,0.377,1.719,0.972,2.402,1.784c0.683,0.813,1.219,1.861,1.607,3.144
		c0.388,1.284,0.583,2.832,0.583,4.646v0.954h-10.563c0.094,1.625,0.436,2.803,1.024,3.533c0.588,0.73,1.377,1.095,2.367,1.095
		c0.895,0,1.696-0.252,2.402-0.759c0.707-0.506,1.26-1.065,1.66-1.678l3.039,2.438c-0.825,1.201-1.819,2.149-2.985,2.844
		C230.417,155.074,228.963,155.421,227.22,155.421z M229.905,143.94c-0.094-1.413-0.377-2.455-0.848-3.126
		c-0.471-0.671-1.13-1.007-1.979-1.007c-0.73,0-1.372,0.313-1.925,0.936c-0.554,0.625-0.901,1.69-1.042,3.197H229.905z"/>
	<path fill="#D39D60" d="M237.289,136.203h5.264v3.038h0.07c0.212-0.4,0.471-0.806,0.777-1.219c0.306-0.412,0.671-0.783,1.095-1.113
		c0.424-0.33,0.913-0.594,1.466-0.795c0.553-0.2,1.183-0.3,1.89-0.3h0.177c0.047,0,0.094,0.012,0.141,0.036l-0.07,4.769
		c-0.071-0.023-0.242-0.047-0.512-0.071c-0.271-0.023-0.465-0.035-0.583-0.035c-1.037,0-1.925,0.218-2.667,0.653
		c-0.742,0.437-1.337,0.937-1.784,1.501v12.365h-5.264V136.203z"/>
	<path fill="#D39D60" d="M251.772,140.089h-2.685v-3.886h2.685v-1.731c0-0.777,0.076-1.507,0.229-2.19
		c0.153-0.683,0.442-1.277,0.866-1.784s1.024-0.913,1.802-1.219c0.777-0.306,1.801-0.459,3.073-0.459
		c0.542,0,1.101,0.012,1.678,0.035c0.577,0.024,0.924,0.059,1.042,0.106v3.851c-0.118-0.023-0.324-0.047-0.618-0.071
		c-0.295-0.023-0.524-0.035-0.689-0.035c-0.613,0-1.137,0.118-1.572,0.353c-0.437,0.236-0.654,0.79-0.654,1.661v1.483h3.392v3.886
		h-3.392v14.943h-5.158V140.089z"/>
	<path fill="#D39D60" d="M269.4,155.421c-1.06,0-2.09-0.183-3.091-0.548c-1.001-0.365-1.89-0.941-2.667-1.731
		c-0.777-0.789-1.396-1.802-1.854-3.038c-0.459-1.236-0.689-2.726-0.689-4.469c0-1.767,0.229-3.273,0.689-4.522
		c0.459-1.248,1.071-2.261,1.837-3.038c0.765-0.777,1.648-1.348,2.649-1.713c1.001-0.365,2.043-0.548,3.126-0.548
		c1.06,0,2.09,0.183,3.091,0.548c1.001,0.365,1.891,0.936,2.668,1.713s1.395,1.79,1.854,3.038c0.459,1.249,0.688,2.755,0.688,4.522
		c0,1.743-0.229,3.232-0.688,4.469c-0.46,1.236-1.077,2.25-1.854,3.038c-0.777,0.79-1.667,1.366-2.668,1.731
		C271.49,155.239,270.459,155.421,269.4,155.421z M269.4,151.429c1.071,0,1.845-0.477,2.322-1.431
		c0.478-0.954,0.716-2.408,0.716-4.363c0-1.767-0.228-3.156-0.682-4.169c-0.453-1.012-1.239-1.519-2.356-1.519
		c-1.071,0-1.845,0.472-2.322,1.413c-0.478,0.942-0.716,2.367-0.716,4.275c0,1.79,0.221,3.203,0.664,4.239
		C267.467,150.912,268.259,151.429,269.4,151.429z"/>
	<path fill="#D39D60" d="M280.351,136.203h5.264v3.038h0.07c0.212-0.4,0.471-0.806,0.777-1.219c0.306-0.412,0.671-0.783,1.095-1.113
		c0.425-0.33,0.913-0.594,1.467-0.795c0.553-0.2,1.184-0.3,1.89-0.3h0.177c0.047,0,0.094,0.012,0.142,0.036l-0.071,4.769
		c-0.07-0.023-0.241-0.047-0.512-0.071c-0.271-0.023-0.466-0.035-0.583-0.035c-1.037,0-1.926,0.218-2.667,0.653
		c-0.742,0.437-1.337,0.937-1.784,1.501v12.365h-5.264V136.203z"/>
	<path fill="#D39D60" d="M293.386,136.203h5.264v2.639c0.235-0.333,0.535-0.676,0.9-1.033c0.365-0.356,0.777-0.682,1.236-0.979
		c0.459-0.297,0.959-0.54,1.501-0.73s1.119-0.285,1.731-0.285c1.271,0,2.248,0.256,2.932,0.766c0.683,0.511,1.142,1.265,1.378,2.262
		c0.258-0.356,0.575-0.712,0.95-1.068c0.375-0.356,0.792-0.676,1.25-0.961c0.457-0.285,0.962-0.522,1.514-0.712
		s1.121-0.285,1.707-0.285c1.573,0,2.729,0.442,3.469,1.325c0.739,0.883,1.108,2.149,1.108,3.797v14.096h-5.192v-12.582
		c0-0.729-0.105-1.274-0.316-1.639c-0.21-0.364-0.643-0.546-1.297-0.546c-0.537,0-1.063,0.176-1.577,0.529
		c-0.515,0.352-0.994,0.74-1.438,1.163v13.075h-5.264v-12.582c0-0.729-0.105-1.274-0.316-1.639c-0.21-0.364-0.619-0.546-1.227-0.546
		c-0.561,0-1.093,0.17-1.596,0.511c-0.502,0.341-0.987,0.735-1.454,1.181v13.075h-5.264V136.203z"/>
	<path fill="#D39D60" d="M325.286,155.245c-0.636,0-1.236-0.088-1.801-0.265c-0.565-0.176-1.055-0.464-1.467-0.865
		c-0.412-0.4-0.736-0.913-0.972-1.537s-0.353-1.372-0.353-2.244c0-1.036,0.234-1.955,0.706-2.755c0.471-0.8,1.148-1.501,2.031-2.102
		c0.884-0.601,1.949-1.118,3.197-1.554c1.248-0.436,2.649-0.795,4.204-1.078v-0.777c0-0.707-0.142-1.242-0.424-1.607
		c-0.283-0.365-0.777-0.547-1.484-0.547c-0.966,0-1.901,0.218-2.808,0.654c-0.907,0.436-1.702,0.9-2.385,1.395l-2.367-3.108
		c1.106-0.966,2.379-1.713,3.815-2.244c1.437-0.53,3.015-0.795,4.733-0.795c2.097,0,3.615,0.507,4.558,1.519
		c0.941,1.013,1.413,2.591,1.413,4.734v8.373c0,1.131,0.029,2.062,0.088,2.791c0.059,0.73,0.183,1.331,0.371,1.802h-5.157
		c-0.118-0.354-0.207-0.729-0.266-1.13c-0.059-0.4-0.088-0.871-0.088-1.413c-0.684,0.895-1.479,1.578-2.385,2.049
		C327.541,155.01,326.487,155.245,325.286,155.245z M327.511,151.253c0.73,0,1.372-0.159,1.926-0.477
		c0.553-0.318,1.019-0.654,1.396-1.007V145.6c-1.885,0.401-3.203,0.919-3.957,1.555s-1.13,1.378-1.13,2.226
		c0,0.613,0.159,1.078,0.477,1.396C326.541,151.094,326.969,151.253,327.511,151.253z"/>
	<path fill="#D39D60" d="M339.276,136.203h5.264v2.639c0.234-0.333,0.533-0.676,0.897-1.033c0.363-0.356,0.78-0.682,1.25-0.979
		c0.469-0.297,0.997-0.54,1.584-0.73s1.209-0.285,1.866-0.285c1.337,0,2.429,0.371,3.273,1.113c0.845,0.742,1.268,2.02,1.268,3.833
		v14.272h-5.193v-12.582c0-0.729-0.128-1.274-0.386-1.639c-0.257-0.364-0.689-0.546-1.298-0.546c-0.607,0-1.192,0.182-1.754,0.546
		s-1.064,0.746-1.508,1.145v13.075h-5.264V136.203z"/>
	<path fill="#D39D60" d="M365.276,155.421c-1.036,0-2.045-0.183-3.025-0.548c-0.981-0.365-1.846-0.941-2.592-1.731
		c-0.748-0.789-1.347-1.802-1.797-3.038s-0.676-2.726-0.676-4.469c0-1.79,0.237-3.309,0.711-4.557
		c0.475-1.248,1.103-2.261,1.886-3.039c0.782-0.777,1.67-1.342,2.662-1.695c0.993-0.354,1.995-0.53,3.008-0.53
		c1.154,0,2.138,0.159,2.95,0.477s1.501,0.754,2.066,1.307c0.565,0.554,1.019,1.207,1.36,1.961c0.341,0.754,0.618,1.566,0.83,2.438
		l-4.628,1.095c-0.26-1.131-0.583-1.949-0.972-2.456c-0.389-0.506-0.948-0.759-1.678-0.759c-0.942,0-1.666,0.448-2.173,1.342
		c-0.507,0.896-0.76,2.367-0.76,4.416c0,1.908,0.218,3.368,0.654,4.38c0.436,1.013,1.184,1.519,2.243,1.519
		c0.659,0,1.242-0.247,1.749-0.742c0.506-0.495,0.889-1.389,1.147-2.685l4.486,1.095c-0.212,0.872-0.512,1.684-0.9,2.438
		c-0.389,0.754-0.883,1.413-1.483,1.979s-1.319,1.007-2.155,1.325S366.383,155.421,365.276,155.421z"/>
	<path fill="#D39D60" d="M382.445,155.421c-1.13,0-2.196-0.183-3.196-0.548c-1.002-0.365-1.879-0.941-2.633-1.731
		c-0.754-0.789-1.348-1.802-1.783-3.038c-0.437-1.236-0.654-2.726-0.654-4.469c0-1.79,0.241-3.309,0.725-4.557
		c0.482-1.248,1.112-2.261,1.89-3.039c0.777-0.777,1.648-1.342,2.614-1.695c0.966-0.354,1.932-0.53,2.897-0.53
		c1.06,0,2.049,0.189,2.967,0.565c0.919,0.377,1.72,0.972,2.402,1.784s1.219,1.861,1.607,3.144c0.389,1.284,0.583,2.832,0.583,4.646
		v0.954h-10.563c0.094,1.625,0.436,2.803,1.024,3.533c0.588,0.73,1.378,1.095,2.367,1.095c0.895,0,1.695-0.252,2.402-0.759
		c0.706-0.506,1.259-1.065,1.66-1.678l3.038,2.438c-0.825,1.201-1.819,2.149-2.985,2.844
		C385.642,155.074,384.188,155.421,382.445,155.421z M385.13,143.94c-0.095-1.413-0.377-2.455-0.849-3.126
		c-0.471-0.671-1.13-1.007-1.978-1.007c-0.73,0-1.373,0.313-1.926,0.936c-0.554,0.625-0.9,1.69-1.042,3.197H385.13z"/>
	<path fill="#D39D60" d="M409.434,155.492c-1.271,0-2.42-0.154-3.444-0.459s-1.931-0.729-2.72-1.272
		c-0.789-0.542-1.483-1.195-2.084-1.96c-0.601-0.765-1.125-1.607-1.572-2.526l4.345-2.19c0.565,1.13,1.302,2.102,2.208,2.915
		s1.996,1.219,3.268,1.219c1.131,0,1.99-0.271,2.579-0.813c0.589-0.542,0.884-1.26,0.884-2.155c0-0.542-0.124-1.013-0.371-1.413
		s-0.583-0.765-1.007-1.095c-0.424-0.33-0.919-0.63-1.484-0.901c-0.564-0.271-1.154-0.536-1.766-0.795
		c-0.849-0.353-1.726-0.742-2.632-1.166c-0.907-0.424-1.731-0.954-2.474-1.589c-0.741-0.636-1.349-1.401-1.819-2.296
		c-0.471-0.895-0.706-2.001-0.706-3.321c0-1.083,0.206-2.072,0.618-2.967s0.989-1.661,1.73-2.296
		c0.742-0.636,1.619-1.13,2.633-1.484c1.012-0.353,2.119-0.53,3.32-0.53c1.131,0,2.148,0.148,3.056,0.445
		c0.906,0.297,1.719,0.706,2.438,1.228c0.719,0.522,1.349,1.146,1.891,1.869c0.541,0.724,1.012,1.498,1.413,2.322l-4.169,2.261
		c-0.542-1.106-1.189-1.996-1.943-2.667s-1.684-1.007-2.791-1.007c-0.941,0-1.666,0.247-2.172,0.741
		c-0.507,0.494-0.76,1.117-0.76,1.87c0,0.517,0.117,0.976,0.354,1.375c0.234,0.4,0.547,0.758,0.936,1.076s0.842,0.611,1.36,0.882
		c0.518,0.271,1.071,0.535,1.66,0.793c0.871,0.376,1.778,0.782,2.721,1.217c0.941,0.435,1.802,0.97,2.579,1.604
		c0.776,0.635,1.413,1.406,1.907,2.311s0.742,2.016,0.742,3.333c0,0.988-0.189,1.929-0.565,2.822
		c-0.377,0.894-0.931,1.688-1.66,2.381c-0.73,0.694-1.643,1.241-2.738,1.641C412.102,155.292,410.847,155.492,409.434,155.492z"/>
	<path fill="#D39D60" d="M428.229,155.245c-1.154,0-2.103-0.094-2.844-0.282c-0.742-0.188-1.325-0.487-1.749-0.898
		c-0.424-0.411-0.719-0.922-0.884-1.533c-0.165-0.611-0.247-1.34-0.247-2.186v-10.256h-2.685v-3.886h2.685v-6.465h5.193v6.465h4.027
		v3.886h-4.027v8.945c0,0.963,0.146,1.608,0.441,1.937c0.294,0.329,0.889,0.493,1.784,0.493c0.259,0,0.553-0.023,0.883-0.071
		c0.33-0.047,0.554-0.094,0.672-0.141v3.745c-0.095,0.023-0.26,0.053-0.495,0.088c-0.235,0.035-0.507,0.064-0.813,0.088
		s-0.63,0.041-0.972,0.053C428.859,155.239,428.535,155.245,428.229,155.245z"/>
	<path fill="#D39D60" d="M437.731,155.245c-0.636,0-1.236-0.088-1.801-0.265c-0.565-0.176-1.055-0.464-1.467-0.865
		c-0.412-0.4-0.736-0.913-0.972-1.537s-0.353-1.372-0.353-2.244c0-1.036,0.234-1.955,0.706-2.755c0.471-0.8,1.148-1.501,2.031-2.102
		c0.884-0.601,1.949-1.118,3.197-1.554c1.248-0.436,2.649-0.795,4.204-1.078v-0.777c0-0.707-0.142-1.242-0.424-1.607
		c-0.283-0.365-0.777-0.547-1.484-0.547c-0.966,0-1.901,0.218-2.808,0.654c-0.907,0.436-1.702,0.9-2.385,1.395l-2.367-3.108
		c1.106-0.966,2.379-1.713,3.815-2.244c1.437-0.53,3.015-0.795,4.733-0.795c2.097,0,3.615,0.507,4.558,1.519
		c0.941,1.013,1.413,2.591,1.413,4.734v8.373c0,1.131,0.029,2.062,0.088,2.791c0.059,0.73,0.183,1.331,0.371,1.802h-5.157
		c-0.118-0.354-0.207-0.729-0.266-1.13c-0.059-0.4-0.088-0.871-0.088-1.413c-0.684,0.895-1.479,1.578-2.385,2.049
		C439.986,155.01,438.932,155.245,437.731,155.245z M439.957,151.253c0.73,0,1.372-0.159,1.926-0.477
		c0.553-0.318,1.019-0.654,1.396-1.007V145.6c-1.885,0.401-3.203,0.919-3.957,1.555s-1.13,1.378-1.13,2.226
		c0,0.613,0.159,1.078,0.477,1.396C438.986,151.094,439.415,151.253,439.957,151.253z"/>
	<path fill="#D39D60" d="M451.721,136.203h5.264v2.639c0.234-0.333,0.533-0.676,0.897-1.033c0.363-0.356,0.78-0.682,1.25-0.979
		c0.469-0.297,0.997-0.54,1.584-0.73s1.209-0.285,1.866-0.285c1.337,0,2.429,0.371,3.273,1.113c0.845,0.742,1.268,2.02,1.268,3.833
		v14.272h-5.193v-12.582c0-0.729-0.128-1.274-0.386-1.639c-0.257-0.364-0.689-0.546-1.298-0.546c-0.607,0-1.192,0.182-1.754,0.546
		s-1.064,0.746-1.508,1.145v13.075h-5.264V136.203z"/>
	<path fill="#D39D60" d="M475.779,155.315c-0.919,0-1.755-0.183-2.509-0.548c-0.754-0.365-1.395-0.936-1.925-1.713
		c-0.53-0.777-0.942-1.771-1.236-2.985c-0.295-1.213-0.441-2.667-0.441-4.363c0-3.368,0.564-5.858,1.695-7.472
		c1.131-1.613,2.614-2.42,4.451-2.42c1.083,0,2.025,0.236,2.826,0.707c0.801,0.472,1.472,1.084,2.014,1.837v-9.468h5.193v21.549
		c0,1.131,0.035,2.062,0.105,2.791c0.071,0.73,0.2,1.331,0.389,1.802h-5.334c-0.048-0.141-0.095-0.318-0.142-0.53
		c-0.048-0.212-0.088-0.43-0.124-0.654c-0.035-0.224-0.059-0.447-0.07-0.671c-0.012-0.224-0.018-0.406-0.018-0.548
		c-0.519,0.707-1.166,1.331-1.943,1.873C477.934,155.044,476.957,155.315,475.779,155.315z M477.775,151.253
		c0.585,0,1.111-0.177,1.579-0.53c0.469-0.353,0.901-0.729,1.3-1.13v-7.772c-0.422-0.471-0.866-0.859-1.334-1.166
		c-0.468-0.306-0.995-0.459-1.58-0.459c-0.96,0-1.668,0.424-2.124,1.271c-0.457,0.848-0.685,2.25-0.685,4.204
		c0,1.885,0.228,3.286,0.685,4.204C476.072,150.793,476.792,151.253,477.775,151.253z"/>
	<path fill="#D39D60" d="M492.947,155.245c-0.636,0-1.236-0.088-1.801-0.265c-0.565-0.176-1.055-0.464-1.467-0.865
		c-0.412-0.4-0.736-0.913-0.972-1.537s-0.353-1.372-0.353-2.244c0-1.036,0.234-1.955,0.706-2.755c0.471-0.8,1.148-1.501,2.031-2.102
		c0.884-0.601,1.949-1.118,3.197-1.554c1.248-0.436,2.649-0.795,4.204-1.078v-0.777c0-0.707-0.142-1.242-0.424-1.607
		c-0.283-0.365-0.777-0.547-1.484-0.547c-0.966,0-1.901,0.218-2.808,0.654c-0.907,0.436-1.702,0.9-2.385,1.395l-2.367-3.108
		c1.106-0.966,2.379-1.713,3.815-2.244c1.437-0.53,3.015-0.795,4.733-0.795c2.097,0,3.615,0.507,4.558,1.519
		c0.941,1.013,1.413,2.591,1.413,4.734v8.373c0,1.131,0.029,2.062,0.088,2.791c0.059,0.73,0.183,1.331,0.371,1.802h-5.157
		c-0.118-0.354-0.207-0.729-0.266-1.13c-0.059-0.4-0.088-0.871-0.088-1.413c-0.684,0.895-1.479,1.578-2.385,2.049
		C495.202,155.01,494.148,155.245,492.947,155.245z M495.172,151.253c0.73,0,1.372-0.159,1.926-0.477
		c0.553-0.318,1.019-0.654,1.396-1.007V145.6c-1.885,0.401-3.203,0.919-3.957,1.555s-1.13,1.378-1.13,2.226
		c0,0.613,0.159,1.078,0.477,1.396C494.202,151.094,494.63,151.253,495.172,151.253z"/>
	<path fill="#D39D60" d="M506.937,136.203h5.264v3.038h0.07c0.212-0.4,0.471-0.806,0.777-1.219c0.306-0.412,0.671-0.783,1.095-1.113
		c0.425-0.33,0.913-0.594,1.467-0.795c0.553-0.2,1.184-0.3,1.89-0.3h0.177c0.047,0,0.094,0.012,0.142,0.036l-0.071,4.769
		c-0.07-0.023-0.241-0.047-0.512-0.071c-0.271-0.023-0.466-0.035-0.583-0.035c-1.037,0-1.926,0.218-2.667,0.653
		c-0.742,0.437-1.337,0.937-1.784,1.501v12.365h-5.264V136.203z"/>
	<path fill="#D39D60" d="M524.601,155.315c-0.919,0-1.755-0.183-2.509-0.548c-0.754-0.365-1.395-0.936-1.925-1.713
		c-0.53-0.777-0.942-1.771-1.236-2.985c-0.295-1.213-0.441-2.667-0.441-4.363c0-3.368,0.564-5.858,1.695-7.472
		c1.131-1.613,2.614-2.42,4.451-2.42c1.083,0,2.025,0.236,2.826,0.707c0.801,0.472,1.472,1.084,2.014,1.837v-9.468h5.193v21.549
		c0,1.131,0.035,2.062,0.105,2.791c0.071,0.73,0.2,1.331,0.389,1.802h-5.334c-0.048-0.141-0.095-0.318-0.142-0.53
		c-0.048-0.212-0.088-0.43-0.124-0.654c-0.035-0.224-0.059-0.447-0.07-0.671c-0.012-0.224-0.018-0.406-0.018-0.548
		c-0.519,0.707-1.166,1.331-1.943,1.873C526.756,155.044,525.779,155.315,524.601,155.315z M526.597,151.253
		c0.585,0,1.111-0.177,1.579-0.53c0.469-0.353,0.901-0.729,1.3-1.13v-7.772c-0.422-0.471-0.866-0.859-1.334-1.166
		c-0.468-0.306-0.995-0.459-1.58-0.459c-0.96,0-1.668,0.424-2.124,1.271c-0.457,0.848-0.685,2.25-0.685,4.204
		c0,1.885,0.228,3.286,0.685,4.204C524.894,150.793,525.614,151.253,526.597,151.253z"/>
</g>
<g>
	<polygon fill="#FFFFFF" points="93.687,110.23 0,110.23 0,0 93.687,0 93.687,110.23 	"/>
	<path fill="#D39D60" d="M4.742,74.237v31.269h84.219V30.934c0,0-51.426,51.222-51.887,51.637
		c-3.356,3.149-9.686,6.435-17.985,1.812L4.742,74.237L4.742,74.237z"/>
	<path fill="#D54235" d="M4.731,4.731v56.366L19.992,71.36c7.579,4.499,12.326-0.31,14.518-2.195
		c0.303-0.262,51.834-48.924,54.456-51.397V4.731H4.731z"/>
</g>
<g>
	<path fill="#D39D60" d="M538.415,127.149h-1.584v-1.152h4.545v1.152h-1.592v5.508h-1.369V127.149z"/>
	<path fill="#D39D60" d="M542.069,125.997h1.746l1.17,4.761h0.01l1.098-4.761h1.773v6.66h-1.297v-4.68h-0.018
		c-0.012,0.113-0.031,0.244-0.059,0.392c-0.027,0.146-0.057,0.295-0.09,0.445c-0.033,0.149-0.066,0.295-0.1,0.437
		c-0.033,0.141-0.064,0.263-0.094,0.364l-0.793,3.042H544.4l-0.774-3.042c-0.018-0.078-0.043-0.186-0.076-0.324
		c-0.033-0.138-0.067-0.286-0.104-0.445c-0.035-0.159-0.068-0.319-0.099-0.481s-0.052-0.303-0.063-0.423h-0.018v4.716h-1.197
		V125.997z"/>
</g>
</svg>
